<svg width="460" height="145" xmlns="http://www.w3.org/2000/svg">
  <style>
    .title { font: 700 20px Verdana; fill: black; }
    .subtitle { font: 14px Verdana; fill: black; }
    .stat { font: 16px Verdana; fill: black; }
    .fade-in {
      opacity: 0;
      animation: fadeIn 0.6s ease-out forwards;
    }
    .slide-in {
      transform: translateX(-10px);
      opacity: 0;
      animation: slideIn 0.6s ease-out forwards;
    }
    @keyframes fadeIn { to { opacity: 1; } }
    @keyframes slideIn { to { transform: translateX(0); opacity: 1; } }
    @keyframes popIn { to { transform: scale(1); } }
  </style>

  <!-- Background -->
  <rect width="100%" height="100%" rx="15" fill="#ffffff" />

  <!-- Top-right HackerRank logo -->
  <image href="hackerrank_logo.svg" x="415" y="10" width="30" height="30" />

  <!-- Avatar -->
  <image href="./user_logo.svg" x="20" y="20" width="60" height="60"
         clip-path="circle(30px at 30px 30px)" class="avatar-pop" style="animation-delay: 0.1s" />

  <!-- Name -->
  <text x="90" y="40" class="title"><tspan x="90" dy="0" class="fade-in" style="animation-delay:0.3s">HackerRank</tspan></text>

  <!-- Username -->
  <text x="90" y="60" class="subtitle fade-in" style="animation-delay: 0.5s">@xyz_aevyx</text>

  <!-- Stats -->
  <text x="20" y="105" class="stat slide-in" style="animation-delay: 0.6s">🏅 Badges: 0</text>
  <text x="200" y="105" class="stat slide-in" style="animation-delay: 0.7s">📜 Certificates: 0</text>

  <!-- Star Rating -->
  
        <polygon points="50,0 54,10 62,10 55,18 57,30 50,23 43,30 45,18 38,10 46,10"
                 fill="#6445ff" opacity="1" transform="translate(0,125) scale(0.8, 0.7)" />

        <polygon points="80,0 84,10 92,10 85,18 87,30 80,23 73,30 75,18 68,10 76,10"
                 fill="#6445ff" opacity="1" transform="translate(0,125) scale(0.8, 0.7)" />

        <polygon points="110,0 114,10 122,10 115,18 117,30 110,23 103,30 105,18 98,10 106,10"
                 fill="#6445ff" opacity="1" transform="translate(0,125) scale(0.8, 0.7)" />

        <polygon points="140,0 144,10 152,10 145,18 147,30 140,23 133,30 135,18 128,10 136,10"
                 fill="#6445ff" opacity="0.3" transform="translate(0,125) scale(0.8, 0.7)" />

        <polygon points="170,0 174,10 182,10 175,18 177,30 170,23 163,30 165,18 158,10 166,10"
                 fill="#6445ff" opacity="0.3" transform="translate(0,125) scale(0.8, 0.7)" />
</svg>